:FULLY-SPECIFIED
:FORCE-ALL-JOINTS-BE-3DOF
:DEGREES
324
root 9.6816 16.4058 9.34493 6.64514 8.22743 2.79597
lfemur 23.3164 5.63002 -19.8204
ltibia 2.62082 0 0
lfoot -0.571796 -2.91722 0
ltoes -14.086 0 0
rfemur -41.8953 1.06266 16.6588
rtibia 41.2227 0 0
rfoot -7.4657 -0.900249 0
rtoes -19.7593 0 0
lowerback -7.58273 -4.51342 -4.95893
upperback -1.22932 -5.684 2.28469
thorax 3.67998 -2.90786 4.51323
lowerneck -19.1694 -4.71657 -12.9497
upperneck 20.9685 -6.00103 13.2067
head 10.7323 -2.28605 6.09005
lclavicle 3.48431e-14 -1.55925e-14 0
lhumerus -24.6219 -34.5216 99.9435
lradius 37.1711 0 0
lwrist 7.3509 0 0
lhand -8.03907 -24.8977 0
lfingers 7.12502 0 0
lthumb 17.8696 4.27717 0
rclavicle 3.48431e-14 -1.55925e-14 0
rhumerus -49.7202 6.19878 -82.7664
rradius 31.2616 0 0
rwrist -16.0045 0 0
rhand -28.4092 -24.489 0
rfingers 7.12502 0 0
rthumb -1.78119 -54.4608 0
325
root 9.67111 16.393 9.50936 6.68267 8.43856 2.78421
lfemur 24.1271 5.64545 -19.5523
ltibia 2.09665 0 0
lfoot -0.0535705 -3.13039 0
ltoes -14.3415 0 0
rfemur -42.0674 1.10339 16.6735
rtibia 41.0533 0 0
rfoot -7.08926 -0.580064 0
rtoes -19.6419 0 0
lowerback -7.64775 -4.54613 -4.97454
upperback -1.25986 -5.72389 2.28968
thorax 3.69096 -2.92745 4.51939
lowerneck -19.0967 -4.74348 -12.9908
upperneck 20.917 -6.04471 13.2615
head 10.7088 -2.30499 6.10888
lclavicle 3.49413e-14 -1.62906e-14 0
lhumerus -24.9539 -34.9714 100.324
lradius 37.4816 0 0
lwrist 7.46554 0 0
lhand -7.81354 -24.908 0
lfingers 7.12502 0 0
lthumb 18.0869 4.25118 0
rclavicle 3.49413e-14 -1.62906e-14 0
rhumerus -49.7947 6.16034 -82.7637
rradius 30.9906 0 0
rwrist -15.8061 0 0
rhand -28.373 -24.5758 0
rfingers 7.12502 0 0
rthumb -1.74622 -54.548 0
326
root 9.66062 16.3802 9.6738 6.7202 8.6497 2.77245
lfemur 24.9377 5.66089 -19.2843
ltibia 1.57249 0 0
lfoot 0.464655 -3.34355 0
ltoes -14.5971 0 0
rfemur -42.2394 1.14412 16.6882
rtibia 40.8839 0 0
rfoot -6.71282 -0.259879 0
rtoes -19.5245 0 0
lowerback -7.71277 -4.57885 -4.99015
upperback -1.29039 -5.76378 2.29467
thorax 3.70195 -2.94703 4.52556
lowerneck -19.0241 -4.77039 -13.0319
upperneck 20.8656 -6.08839 13.3163
head 10.6853 -2.32393 6.12772
lclavicle 3.50395e-14 -1.69888e-14 0
lhumerus -25.2859 -35.4212 100.705
lradius 37.7921 0 0
lwrist 7.58018 0 0
lhand -7.588 -24.9182 0
lfingers 7.12502 0 0
lthumb 18.3042 4.22519 0
rclavicle 3.50395e-14 -1.69888e-14 0
rhumerus -49.8692 6.1219 -82.7609
rradius 30.7195 0 0
rwrist -15.6078 0 0
rhand -28.3368 -24.6626 0
rfingers 7.12502 0 0
rthumb -1.71125 -54.6351 0
327
root 9.65013 16.3673 9.83823 6.75773 8.86084 2.76069
lfemur 25.7484 5.67632 -19.0162
ltibia 1.04833 0 0
lfoot 0.98288 -3.55671 0
ltoes -14.8527 0 0
rfemur -42.4114 1.18485 16.7029
rtibia 40.7145 0 0
rfoot -6.33637 0.0603055 0
rtoes -19.4071 0 0
lowerback -7.77779 -4.61156 -5.00576
upperback -1.32093 -5.80367 2.29966
thorax 3.71293 -2.96662 4.53173
lowerneck -18.9515 -4.7973 -13.0729
upperneck 20.8142 -6.13208 13.3711
head 10.6619 -2.34286 6.14655
lclavicle 3.51376e-14 -1.7687e-14 0
lhumerus -25.6178 -35.8709 101.086
lradius 38.1025 0 0
lwrist 7.69482 0 0
lhand -7.36246 -24.9285 0
lfingers 7.12502 0 0
lthumb 18.5214 4.19921 0
rclavicle 3.51376e-14 -1.7687e-14 0
rhumerus -49.9437 6.08346 -82.7581
rradius 30.4485 0 0
rwrist -15.4094 0 0
rhand -28.3006 -24.7493 0
rfingers 7.12502 0 0
rthumb -1.67629 -54.7223 0
328
root 9.63964 16.3545 10.0027 6.79526 9.07197 2.74893
lfemur 26.5591 5.69176 -18.7482
ltibia 0.524163 0 0
lfoot 1.5011 -3.76988 0
ltoes -15.1082 0 0
rfemur -42.5835 1.22558 16.7176
rtibia 40.5452 0 0
rfoot -5.95993 0.38049 0
rtoes -19.2897 0 0
lowerback -7.84281 -4.64428 -5.02136
upperback -1.35146 -5.84357 2.30465
thorax 3.72392 -2.9862 4.53789
lowerneck -18.8789 -4.82421 -13.114
upperneck 20.7627 -6.17576 13.4259
head 10.6384 -2.3618 6.16538
lclavicle 3.52358e-14 -1.83851e-14 0
lhumerus -25.9498 -36.3207 101.467
lradius 38.413 0 0
lwrist 7.80946 0 0
lhand -7.13693 -24.9388 0
lfingers 7.12502 0 0
lthumb 18.7387 4.17322 0
rclavicle 3.52358e-14 -1.83851e-14 0
rhumerus -50.0183 6.04502 -82.7554
rradius 30.1774 0 0
rwrist -15.2111 0 0
rhand -28.2644 -24.8361 0
rfingers 7.12502 0 0
rthumb -1.64132 -54.8094 0
329
root 9.62915 16.3417 10.1671 6.83279 9.28311 2.73717
lfemur 27.3698 5.70719 -18.4801
ltibia 6.36111e-15 0 0
lfoot 2.01933 -3.98304 0
ltoes -15.3638 0 0
rfemur -42.7555 1.26631 16.7323
rtibia 40.3758 0 0
rfoot -5.58349 0.700675 0
rtoes -19.1723 0 0
lowerback -7.90783 -4.67699 -5.03697
upperback -1.382 -5.88346 2.30964
thorax 3.7349 -3.00579 4.54406
lowerneck -18.8063 -4.85112 -13.1551
upperneck 20.7113 -6.21944 13.4807
head 10.6149 -2.38074 6.18421
lclavicle 3.5334e-14 -1.90833e-14 0
lhumerus -26.2818 -36.7705 101.848
lradius 38.7235 0 0
lwrist 7.9241 0 0
lhand -6.91139 -24.9491 0
lfingers 7.12502 0 0
lthumb 18.956 4.14723 0
rclavicle 3.5334e-14 -1.90833e-14 0
rhumerus -50.0928 6.00658 -82.7526
rradius 29.9064 0 0
rwrist -15.0127 0 0
rhand -28.2282 -24.9229 0
rfingers 7.12502 0 0
rthumb -1.60635 -54.8966 0
330
root 9.62153 16.3593 10.3056 6.81793 9.17321 2.60266
lfemur 25.8903 5.70573 -18.4642
ltibia 1.44192 0 0
lfoot 1.61003 -3.60584 0
ltoes -15.0105 0 0
rfemur -42.0708 1.38466 17.0253
rtibia 40.1284 0 0
rfoot -5.92359 0.738866 0
rtoes -19.1367 0 0
lowerback -7.85133 -4.56572 -4.9156
upperback -1.36926 -5.74517 2.31824
thorax 3.69894 -2.93528 4.50059
lowerneck -18.8398 -4.88557 -13.1404
upperneck 20.7344 -6.26615 13.4613
head 10.6358 -2.40166 6.16723
lclavicle 3.43019e-14 -1.9636e-14 0
lhumerus -26.7633 -36.3331 101.752
lradius 38.4809 0 0
lwrist 8.03306 0 0
lhand -7.09135 -24.8775 0
lfingers 7.12502 0 0
lthumb 18.7827 4.23221 0
rclavicle 3.43019e-14 -1.9636e-14 0
rhumerus -49.7092 6.2911 -82.792
rradius 30.2437 0 0
rwrist -15.1925 0 0
rhand -28.293 -24.9074 0
rfingers 7.12502 0 0
rthumb -1.66894 -54.8802 0
331
root 9.61392 16.377 10.4441 6.80307 9.06331 2.46815
lfemur 24.4109 5.70428 -18.4484
ltibia 2.88385 0 0
lfoot 1.20073 -3.22863 0
ltoes -14.6571 0 0
rfemur -41.3862 1.50301 17.3184
rtibia 39.8811 0 0
rfoot -6.2637 0.777057 0
rtoes -19.1012 0 0
lowerback -7.79483 -4.45446 -4.79424
upperback -1.35653 -5.60687 2.32685
thorax 3.66297 -2.86476 4.45712
lowerneck -18.8733 -4.92003 -13.1258
upperneck 20.7575 -6.31285 13.4419
head 10.6566 -2.42258 6.15026
lclavicle 3.32698e-14 -2.01887e-14 0
lhumerus -27.2449 -35.8956 101.655
lradius 38.2382 0 0
lwrist 8.14201 0 0
lhand -7.27131 -24.8059 0
lfingers 7.12502 0 0
lthumb 18.6094 4.31718 0
rclavicle 3.32698e-14 -2.01887e-14 0
rhumerus -49.3256 6.57561 -82.8314
rradius 30.5811 0 0
rwrist -15.3722 0 0
rhand -28.3578 -24.8919 0
rfingers 7.12502 0 0
rthumb -1.73153 -54.8639 0
332
root 9.6063 16.3946 10.5826 6.78821 8.95342 2.33365
lfemur 22.9314 5.70282 -18.4325
ltibia 4.32577 0 0
lfoot 0.791435 -2.85143 0
ltoes -14.3038 0 0
rfemur -40.7015 1.62136 17.6114
rtibia 39.6337 0 0
rfoot -6.6038 0.815248 0
rtoes -19.0656 0 0
lowerback -7.73833 -4.34319 -4.67287
upperback -1.34379 -5.46858 2.33545
thorax 3.62701 -2.79425 4.41364
lowerneck -18.9069 -4.95448 -13.1111
upperneck 20.7805 -6.35956 13.4226
head 10.6775 -2.44351 6.13328
lclavicle 3.22377e-14 -2.07415e-14 0
lhumerus -27.7264 -35.4582 101.559
lradius 37.9956 0 0
lwrist 8.25097 0 0
lhand -7.45127 -24.7343 0
lfingers 7.12502 0 0
lthumb 18.436 4.40216 0
rclavicle 3.22377e-14 -2.07415e-14 0
rhumerus -48.9421 6.86013 -82.8708
rradius 30.9184 0 0
rwrist -15.552 0 0
rhand -28.4226 -24.8764 0
rfingers 7.12502 0 0
rthumb -1.79413 -54.8475 0
333
root 9.59868 16.4122 10.721 6.77335 8.84352 2.19914
lfemur 21.452 5.70137 -18.4166
ltibia 5.7677 0 0
lfoot 0.382137 -2.47423 0
ltoes -13.9504 0 0
rfemur -40.0169 1.73971 17.9045
rtibia 39.3864 0 0
rfoot -6.9439 0.853439 0
rtoes -19.0301 0 0
lowerback -7.68183 -4.23192 -4.55151
upperback -1.33106 -5.33029 2.34405
thorax 3.59105 -2.72374 4.37017
lowerneck -18.9404 -4.98893 -13.0965
upperneck 20.8036 -6.40626 13.4032
head 10.6984 -2.46443 6.11631
lclavicle 3.12056e-14 -2.12942e-14 0
lhumerus -28.208 -35.0207 101.463
lradius 37.753 0 0
lwrist 8.35992 0 0
lhand -7.63123 -24.6627 0
lfingers 7.12502 0 0
lthumb 18.2627 4.48713 0
rclavicle 3.12056e-14 -2.12942e-14 0
rhumerus -48.5585 7.14464 -82.9102
rradius 31.2558 0 0
rwrist -15.7317 0 0
rhand -28.4875 -24.8609 0
rfingers 7.12502 0 0
rthumb -1.85672 -54.8312 0
334
root 9.59107 16.4299 10.8595 6.75848 8.73362 2.06463
lfemur 19.9725 5.69991 -18.4008
ltibia 7.20962 0 0
lfoot -0.0271615 -2.09702 0
ltoes -13.5971 0 0
rfemur -39.3322 1.85806 18.1975
rtibia 39.139 0 0
rfoot -7.284 0.89163 0
rtoes -18.9945 0 0
lowerback -7.62533 -4.12065 -4.43014
upperback -1.31832 -5.192 2.35265
thorax 3.55508 -2.65322 4.3267
lowerneck -18.9739 -5.02338 -13.0818
upperneck 20.8267 -6.45297 13.3838
head 10.7192 -2.48535 6.09933
lclavicle 3.01735e-14 -2.18469e-14 0
lhumerus -28.6895 -34.5833 101.367
lradius 37.5104 0 0
lwrist 8.46888 0 0
lhand -7.8112 -24.5911 0
lfingers 7.12502 0 0
lthumb 18.0894 4.57211 0
rclavicle 3.01735e-14 -2.18469e-14 0
rhumerus -48.1749 7.42916 -82.9496
rradius 31.5931 0 0
rwrist -15.9115 0 0
rhand -28.5523 -24.8454 0
rfingers 7.12502 0 0
rthumb -1.91931 -54.8148 0
335
root 9.58345 16.4475 10.998 6.74362 8.62372 1.93012
lfemur 18.4931 5.69845 -18.3849
ltibia 8.65155 0 0
lfoot -0.43646 -1.71982 0
ltoes -13.2437 0 0
rfemur -38.6476 1.9764 18.4906
rtibia 38.8917 0 0
rfoot -7.62411 0.929822 0
rtoes -18.959 0 0
lowerback -7.56883 -4.00939 -4.30877
upperback -1.30558 -5.0537 2.36126
thorax 3.51912 -2.58271 4.28323
lowerneck -19.0074 -5.05784 -13.0672
upperneck 20.8498 -6.49967 13.3644
head 10.7401 -2.50627 6.08236
lclavicle 2.91414e-14 -2.23996e-14 0
lhumerus -29.1711 -34.1458 101.27
lradius 37.2677 0 0
lwrist 8.57784 0 0
lhand -7.99116 -24.5195 0
lfingers 7.12502 0 0
lthumb 17.9161 4.65709 0
rclavicle 2.91414e-14 -2.23996e-14 0
rhumerus -47.7913 7.71367 -82.989
rradius 31.9305 0 0
rwrist -16.0912 0 0
rhand -28.6171 -24.8299 0
rfingers 7.12502 0 0
rthumb -1.9819 -54.7985 0
